<svg width="64" height="64" viewBox="0 0 64 64" fill="none" xmlns="http://www.w3.org/2000/svg">
    <rect width="64" height="64" rx="10" fill="#FF4A45"/>
    <g clip-path="url(#clip0_44_2)">
        <path d="M34.1913 17.2308C34.732 17.2308 35.1705 16.7924 35.1705 16.2516C35.1705 15.7108 34.732 15.2724 34.1913 15.2724C31.1992 15.2724 28.7651 17.7068 28.7651 20.699C28.7651 23.6889 31.1993 26.1214 34.1913 26.1214C34.732 26.1214 35.1705 25.683 35.1705 25.1423C35.1705 24.6015 34.732 24.1631 34.1913 24.1631C32.2792 24.1631 30.7235 22.609 30.7235 20.699C30.7235 18.7866 32.2792 17.2308 34.1913 17.2308Z"
              fill="url(#paint0_linear_44_2)"/>
        <path d="M43.9108 40.045C42.5028 40.045 41.2161 40.5714 40.2347 41.4362V35.8777C40.2347 35.3369 39.7962 34.8986 39.2555 34.8986C38.7148 34.8986 38.2764 35.3369 38.2764 35.8777V44.8865C38.2764 45.0228 38.3043 45.1524 38.3546 45.2703C38.3477 45.3835 38.3431 45.4973 38.3431 45.6122C38.3431 48.6804 40.8408 51.1765 43.9108 51.1765C46.9796 51.1765 49.4762 48.6803 49.4762 45.6122C49.4762 42.5424 46.9796 40.045 43.9108 40.045ZM43.9108 49.2182C41.9206 49.2182 40.3015 47.6006 40.3015 45.6122C40.3015 43.6222 41.9206 42.0033 43.9108 42.0033C45.8998 42.0033 47.5178 43.6222 47.5178 45.6122C47.5178 47.6006 45.8998 49.2182 43.9108 49.2182Z"
              fill="url(#paint1_linear_44_2)"/>
        <path d="M20.912 37.2141C17.7611 37.2141 15.1978 39.7778 15.1978 42.9291C15.1978 46.0794 17.7612 48.6422 20.912 48.6422C22.3955 48.6422 23.7485 48.0737 24.7654 47.1436V49.3906C24.7654 49.9314 25.2038 50.3698 25.7446 50.3698C26.2853 50.3698 26.7237 49.9314 26.7237 49.3906V42.6344C26.7237 42.4379 26.6653 42.2552 26.5656 42.1019C26.1636 39.3413 23.7819 37.2141 20.912 37.2141ZM20.912 46.6839C18.8409 46.6839 17.1561 44.9994 17.1561 42.9291C17.1561 40.8577 18.841 39.1724 20.912 39.1724C22.9829 39.1724 24.6679 40.8577 24.6679 42.9291C24.668 44.9994 22.983 46.6839 20.912 46.6839Z"
              fill="url(#paint2_linear_44_2)"/>
        <path d="M51.3612 31.5208H44.7396V13.6392C44.7396 11.0811 42.6587 9 40.1008 9H24.8992C22.3413 9 20.2604 11.0811 20.2604 13.6392V31.5208H13.6388C11.0809 31.5208 9 33.602 9 36.16V51.3608C9 53.9189 11.0809 56 13.6388 56H28.8404C30.3263 56 31.6505 55.2968 32.5 54.2066C33.3495 55.2968 34.6736 56 36.1596 56H51.3612C53.9191 56 56 53.9189 56 51.3608V36.16C56 33.602 53.9191 31.5208 51.3612 31.5208ZM31.5208 51.3608C31.5208 52.8391 30.3184 54.0417 28.8404 54.0417H13.6388C12.1608 54.0417 10.9583 52.8391 10.9583 51.3608V36.16C10.9583 34.6818 12.1608 33.4792 13.6388 33.4792H28.8404C30.3184 33.4792 31.5208 34.6818 31.5208 36.16V51.3608ZM32.5 33.3143C31.6505 32.2241 30.3263 31.5208 28.8404 31.5208H22.2188V13.6392C22.2188 12.1609 23.4212 10.9583 24.8992 10.9583H40.1008C41.5788 10.9583 42.7813 12.1609 42.7813 13.6392V31.5208H36.1596C34.6736 31.5208 33.3495 32.2241 32.5 33.3143ZM54.0417 51.3608C54.0417 52.8391 52.8393 54.0417 51.3612 54.0417H36.1596C34.6816 54.0417 33.4792 52.8391 33.4792 51.3608V36.16C33.4792 34.6818 34.6816 33.4792 36.1596 33.4792H51.3612C52.8393 33.4792 54.0417 34.6818 54.0417 36.16V51.3608Z"
              fill="url(#paint3_linear_44_2)"/>
    </g>
    <defs>
        <linearGradient id="paint0_linear_44_2" x1="33.8758" y1="14.4645" x2="24.8608" y2="22.1606"
                        gradientUnits="userSpaceOnUse">
            <stop stop-color="#2F2525"/>
            <stop offset="1" stop-color="#660000"/>
        </linearGradient>
        <linearGradient id="paint1_linear_44_2" x1="47.2124" y1="33.6864" x2="33.5168" y2="47.3116"
                        gradientUnits="userSpaceOnUse">
            <stop stop-color="#2F2525"/>
            <stop offset="1" stop-color="#660000"/>
        </linearGradient>
        <linearGradient id="paint2_linear_44_2" x1="24.394" y1="36.2344" x2="13.6277" y2="49.8734"
                        gradientUnits="userSpaceOnUse">
            <stop stop-color="#2F2525"/>
            <stop offset="1" stop-color="#660000"/>
        </linearGradient>
        <linearGradient id="paint3_linear_44_2" x1="46.5" y1="5.5" x2="9.5" y2="59" gradientUnits="userSpaceOnUse">
            <stop stop-color="#2F2525"/>
            <stop offset="1" stop-color="#660000"/>
        </linearGradient>
        <clipPath id="clip0_44_2">
            <rect width="47" height="47" fill="white" transform="translate(9 9)"/>
        </clipPath>
    </defs>
</svg>
